<svg id="favicon" xmlns="http://www.w3.org/2000/svg" width="600" height="600" viewBox="0 0 600 600">
  <rect id="background" width="600" height="600" rx="100" fill="#fafafa" />
  <path id="path"
    d="M-2815.2-1815.487c0-.015,415.388-.016,415.4,0-43.418,68.974-120.291,115.011-207.7,115.011S-2771.856-1746.626-2815.2-1815.487Zm213.2-9.487.013-115.53s239.458.03,239.447.017a243.994,243.994,0,0,1-31.257,115.513C-2393.794-1824.993-2602-1824.974-2602-1824.974ZM-2720.327-1940.5l108.321.01V-1825.5l-208,.484ZM-2602-2066.026s208.208.019,208.2,0a243.991,243.991,0,0,1,31.257,115.513c.011-.014-239.447.016-239.447.016Zm-109.671,115.487L-2612-2066.02l-.052,115.482Zm-103.53-125.455c43.346-68.861,120.292-115.007,207.7-115.007s164.283,46.037,207.7,115.011c-.007.005-84.065.008-176.554.008C-2689.472-2075.981-2815.2-2075.985-2815.2-2075.993Z"
    transform="translate(2907.5 2246)" fill="#333" />
</svg>